<?xml version="1.0" standalone="no"?>
<!DOCTYPE svg PUBLIC "-//W3C//DTD SVG 20010904//EN"
 "http://www.w3.org/TR/2001/REC-SVG-20010904/DTD/svg10.dtd">
<svg version="1.0" xmlns="http://www.w3.org/2000/svg"
 width="450.000000pt" height="450.000000pt" viewBox="0 0 450.000000 450.000000"
 preserveAspectRatio="xMidYMid meet">
<metadata>
Created by potrace 1.10, written by Peter Selinger 2001-2011
</metadata>
<g transform="translate(0.000000,450.000000) scale(0.100000,-0.100000)"
fill="#0335fc" stroke="none">
<path d="M1091 3908 c-11 -4 -24 -16 -30 -27 -8 -13 -11 -244 -11 -720 l0
-701 -134 0 c-109 0 -138 -3 -150 -16 -14 -14 -16 -90 -16 -684 0 -594 2 -670
16 -684 12 -13 41 -16 150 -16 l134 0 0 -220 c0 -207 1 -221 20 -240 20 -20
33 -20 1185 -20 l1164 0 21 22 c19 21 20 34 20 240 l0 217 137 3 c135 3 138 3
150 28 10 19 13 175 13 675 0 573 -2 653 -16 673 -14 21 -22 22 -150 22 l-134
0 0 467 0 467 -257 257 -258 258 -917 3 c-505 2 -926 0 -937 -4z m1771 -260
c3 -109 7 -129 30 -174 31 -60 84 -109 147 -137 37 -16 69 -20 158 -21 l113
-1 0 -427 0 -428 -1057 0 -1058 0 1 513 c1 281 2 576 3 655 l1 142 829 0 829
0 4 -122z m-807 -1879 c66 -165 122 -304 123 -310 2 -5 -27 -9 -66 -9 l-70 0
-25 68 -25 67 -123 3 -124 3 -25 -68 -25 -68 -68 -3 c-37 -2 -67 -1 -67 2 0 3
4 15 10 28 5 13 57 147 116 298 58 151 108 278 111 283 2 4 34 7 71 7 l67 0
120 -301z m572 282 c64 -30 97 -86 97 -169 1 -143 -80 -202 -275 -202 l-69 0
0 -115 0 -115 -65 0 -65 0 0 310 0 310 168 0 c142 0 173 -3 209 -19z m323
-291 l0 -310 -65 0 -65 0 0 310 0 310 65 0 65 0 0 -310z m366 -746 c-3 -26 -6
-102 -6 -170 l0 -124 -1055 0 -1055 0 -1 58 c0 31 -2 108 -5 170 l-5 112 1067
0 1067 0 -7 -46z"/>
<path d="M1540 3300 l0 -60 505 0 505 0 0 60 0 60 -505 0 -505 0 0 -60z"/>
<path d="M1540 3010 l0 -60 715 0 715 0 0 60 0 60 -715 0 -715 0 0 -60z"/>
<path d="M1540 2721 l0 -60 228 -3 c125 -2 447 -2 715 0 l488 3 -3 57 -3 57
-712 3 -713 2 0 -59z"/>
<path d="M1826 1813 c-20 -58 -35 -107 -33 -109 3 -3 38 -4 79 -2 l74 3 -41
107 -41 106 -38 -105z"/>
<path d="M2380 1875 l0 -85 73 0 c82 0 116 14 135 53 18 37 1 90 -34 106 -14
6 -58 11 -99 11 l-75 0 0 -85z"/>
</g>
</svg>
